{"title":"From.Prada.to.Nada.2011.BRRip.x264.Feel-Free","uid":6319904,"size":2709594163,"categoryP":"video","categoryS":"movies","magnet":"?xt=urn:btih:086c7229dfdf9f0b3f0310a9c56654465eb78688&amp;dn=From.Prada.to.Nada.2011.BRRip.x264.Feel-Free&amp;tr=udp%3A%2F%2Ftracker.openbittorrent.com%3A80&amp;tr=udp%3A%2F%2Fopen.demonii.com%3A1337&amp;tr=udp%3A%2F%2Ftracker.coppersurfer.tk%3A6969&amp;tr=udp%3A%2F%2Fexodus.desync.com%3A6969","seeders":0,"leechers":0,"uploader":"qwersd","files":9,"time":1302916451,"description":"Genre:Comedy | Drama | Romance \nLanguage:English\nIMDb:http://www.imdb.com/title/tt0893412/\nSource:BluRay.720p.DTS.x264-CHD\n\n\nFormat : MPEG-4\nFormat profile : Base Media\nCodec ID : isom\nFile size : 2.52 GiB\nDuration : 1h 46mn\nOverall bit rate : 3 385 Kbps\n\n\nVideo\nFormat profile : &lt;a class=&quot;__cf_email__&quot; href=&quot;/cdn-cgi/l/email-protection&quot; data-cfemail=&quot;3971505e5179750d1708&quot;&gt;[email&amp;#160;protected]&lt;/a&gt;&lt;script cf-hash='f9e31' type=&quot;text/javascript&quot;&gt;\n/* &lt;![CDATA[ */!function(){try{var t=&quot;currentScript&quot;in document?document.currentScript:function(){for(var t=document.getElementsByTagName(&quot;script&quot;),e=t.length;e--;)if(t[e].getAttribute(&quot;cf-hash&quot;))return t[e]}();if(t&amp;&amp;t.previousSibling){var e,r,n,i,c=t.previousSibling,a=c.getAttribute(&quot;data-cfemail&quot;);if(a){for(e=&quot;&quot;,r=parseInt(a.substr(0,2),16),n=2;a.length-n;n+=2)i=parseInt(a.substr(n,2),16)^r,e+=String.fromCharCode(i);e=document.createTextNode(e),c.parentNode.replaceChild(e,c)}}}catch(u){}}();/* ]]&gt; */&lt;/script&gt;\nFormat settings, CABAC : Yes\nFormat settings, ReFrames : 3 frames\nCodec ID : avc1\nCodec ID/Info : Advanced Video Coding\nDuration : 1h 46mn\nBit rate mode : Variable\nBit rate : 3 000 Kbps\nMaximum bit rate : 14.6 Mbps\nWidth : 1 280 pixels\nHeight : 720 pixels\nDisplay aspect ratio : 16:9\nFrame rate mode : Constant\nFrame rate : 23.976 fps\nColor space : YUV\nChroma subsampling : 4:2:0\nBit depth : 8 bits\nScan type : Progressive\nBits/(Pixel*Frame) : 0.136\nStream size : 2.19 GiB (87%)\nWriting library : x264\n\nAudio\nID : 2\nFormat : AAC\nFormat/Info : Advanced Audio Codec\nFormat version : Version 4\nFormat profile : LC\nFormat settings, SBR : No\nCodec ID : 40\nDuration : 1h 46mn\nBit rate mode : Variable\nBit rate : 444 Kbps\nMaximum bit rate : 540 Kbps\nChannel(s) : 6 channels\nChannel positions : Front: L C R, Side: L R, LFE\nSampling rate : 48.0 KHz\nStream size : 338 MiB (13%)\n\n\nPlot:\nA Latina spin on Jane Austen's &quot;Sense and Sensibility,&quot; where two spoiled sisters who have been left penniless after their father's sudden death are forced to move in with their estranged aunt in East Los Angeles.\n\nScreens:\n &lt;a href=&quot;\nhttp://www.pix2links.com/images/41072524980753468044.png&quot; rel=&quot;nofollow&quot; target=&quot;_NEW&quot;&gt;\nhttp://www.pix2links.com/images/41072524980753468044.png&lt;/a&gt; &lt;a href=&quot;\nhttp://www.pix2links.com/images/10648239913894440689.png&quot; rel=&quot;nofollow&quot; target=&quot;_NEW&quot;&gt;\nhttp://www.pix2links.com/images/10648239913894440689.png&lt;/a&gt; &lt;a href=&quot;\nhttp://www.pix2links.com/images/59652209217418889814.png&quot; rel=&quot;nofollow&quot; target=&quot;_NEW&quot;&gt;\nhttp://www.pix2links.com/images/59652209217418889814.png&lt;/a&gt; &lt;a href=&quot;\nhttp://www.pix2links.com/images/09592403640582564251.png&quot; rel=&quot;nofollow&quot; target=&quot;_NEW&quot;&gt;\nhttp://www.pix2links.com/images/09592403640582564251.png&lt;/a&gt; &lt;a href=&quot;\nhttp://www.pix2links.com/images/75456145636359586733.png&quot; rel=&quot;nofollow&quot; target=&quot;_NEW&quot;&gt;\nhttp://www.pix2links.com/images/75456145636359586733.png&lt;/a&gt;\n\nGreets:\n\nINK,CRYS,IMAGINE,LKRG,FXG,3Li,FLAWL3SS,TA,iLLUSiON,ViSiON,DTRG SAFCuk009,LU,TheFalcon007,MYSTiC,PrisM,Noir,WBZ,LAP,Rx,Kingdom,SAFCuk009+Fabreezy,HDLiTE,TWiZTED,ExtraTorrentRG.ELEKTRI4KA,MAGNAT,CM8\nAnd to all the other p2p grps past and present .","torrent":{"xt":"urn:btih:086c7229dfdf9f0b3f0310a9c56654465eb78688","amp;dn":"From.Prada.to.Nada.2011.BRRip.x264.Feel-Free","amp;tr":["udp%3A%2F%2Ftracker.openbittorrent.com%3A80","udp%3A%2F%2Fopen.demonii.com%3A1337","udp%3A%2F%2Ftracker.coppersurfer.tk%3A6969","udp%3A%2F%2Fexodus.desync.com%3A6969"],"infoHash":"086c7229dfdf9f0b3f0310a9c56654465eb78688","infoHashBuffer":{"type":"Buffer","data":[8,108,114,41,223,223,159,11,63,3,16,169,197,102,84,70,94,183,134,136]},"announce":[],"urlList":[]}}